<svg width="32" height="32" viewBox="0 0 32 32" fill="none" xmlns="http://www.w3.org/2000/svg">
<path d="M22.0199 22.021C22.7863 21.2546 22.659 17.9987 22.659 17.9987M22.0199 22.021C21.2535 22.7874 17.9976 22.6598 17.9976 22.6598M22.0199 22.021L17.3335 17.3345M9.98024 9.9813C10.7467 9.21489 14.0026 9.34242 14.0026 9.34242M9.98024 9.9813C9.21382 10.7477 9.34146 14.0035 9.34146 14.0035M9.98024 9.9813L14.6668 14.6678" stroke="white" stroke-width="1.5" stroke-linecap="round" stroke-linejoin="round"/>
<path d="M3.3335 16.0011C3.3335 10.03 3.3335 7.04446 5.18848 5.18946C7.04348 3.33447 10.029 3.33447 16.0002 3.33447C21.9712 3.33447 24.9568 3.33447 26.8119 5.18946C28.6668 7.04446 28.6668 10.03 28.6668 16.0011C28.6668 21.9722 28.6668 24.9578 26.8119 26.8129C24.9568 28.6678 21.9712 28.6678 16.0002 28.6678C10.029 28.6678 7.04348 28.6678 5.18848 26.8129C3.3335 24.9578 3.3335 21.9722 3.3335 16.0011Z" stroke="white" stroke-width="1.5"/>
</svg>
