<svg width="33" height="32" viewBox="0 0 33 32" fill="none" xmlns="http://www.w3.org/2000/svg">
<path d="M8.49984 26.6675L7.1665 28.0008M24.4998 26.6675L25.8332 28.0008" stroke="white" stroke-width="1.5" stroke-linecap="round"/>
<path d="M4.5 16.001V17.3343C4.5 21.734 4.5 23.9339 5.86684 25.3008C7.23367 26.6676 9.43356 26.6676 13.8333 26.6676H19.1667C23.5664 26.6676 25.7663 26.6676 27.1332 25.3008C28.5 23.9339 28.5 21.734 28.5 17.3343V16.001" stroke="white" stroke-width="1.5" stroke-linecap="round" stroke-linejoin="round"/>
<path d="M3.1665 16.001H29.8332" stroke="white" stroke-width="1.5" stroke-linecap="round"/>
<path d="M5.8335 16.001V7.36551C5.8335 5.50734 7.33986 4.00098 9.19803 4.00098C10.689 4.00098 12.0022 4.98228 12.4247 6.41219L12.5002 6.66764" stroke="white" stroke-width="1.5" stroke-linecap="round"/>
<path d="M11.1665 8.00114L14.4998 5.33447" stroke="white" stroke-width="1.5" stroke-linecap="round"/>
</svg>
