<svg width="32" height="32" viewBox="0 0 32 32" fill="none" xmlns="http://www.w3.org/2000/svg">
<path d="M29.3332 23.3345H2.6665" stroke="white" stroke-width="1.5" stroke-linecap="round" stroke-linejoin="round"/>
<path d="M29.3332 28.001V21.3343C29.3332 18.8202 29.3332 17.5631 28.5521 16.782C27.771 16.001 26.514 16.001 23.9998 16.001H7.99984C5.48568 16.001 4.2286 16.001 3.44756 16.782C2.6665 17.5631 2.6665 18.8202 2.6665 21.3343V28.001" stroke="white" stroke-width="1.5" stroke-linecap="round" stroke-linejoin="round"/>
<path d="M14.6667 16.001V13.6188C14.6667 13.1113 14.5904 12.9415 14.1996 12.7415C13.386 12.3249 12.3982 12.001 11.3333 12.001C10.2685 12.001 9.28073 12.3249 8.467 12.7415C8.07628 12.9415 8 13.1113 8 13.6188V16.001" stroke="white" stroke-width="1.5" stroke-linecap="round"/>
<path d="M24.0002 16.001V13.6188C24.0002 13.1113 23.9239 12.9415 23.5331 12.7415C22.7195 12.3249 21.7318 12.001 20.6668 12.001C19.6019 12.001 18.6142 12.3249 17.8006 12.7415C17.4098 12.9415 17.3335 13.1113 17.3335 13.6188V16.001" stroke="white" stroke-width="1.5" stroke-linecap="round"/>
<path d="M28 16.001V9.81507C28 8.89288 28 8.43179 27.7439 7.99635C27.4876 7.56091 27.1227 7.33552 26.3925 6.88475C23.4492 5.06735 19.8657 4.00098 16 4.00098C12.1342 4.00098 8.55085 5.06735 5.60744 6.88475C4.87739 7.33552 4.51236 7.56091 4.25617 7.99635C4 8.43179 4 8.89288 4 9.81507V16.001" stroke="white" stroke-width="1.5" stroke-linecap="round"/>
</svg>
